<svg xmlns="http://www.w3.org/2000/svg" viewBox="0 0 800 600">
  <!-- Sky and background -->
  <rect width="800" height="600" fill="#e6ebf5"/>
  
  <!-- City background buildings -->
  <g opacity="0.5">
    <rect x="400" y="150" width="80" height="250" fill="#b3c1d1"/>
    <rect x="500" y="180" width="60" height="220" fill="#b3c1d1"/>
    <rect x="580" y="160" width="70" height="240" fill="#b3c1d1"/>
    <rect x="670" y="200" width="50" height="200" fill="#b3c1d1"/>
  </g>
  
  <!-- Clouds -->
  <ellipse cx="100" cy="100" rx="40" ry="20" fill="white"/>
  <ellipse cx="130" cy="90" rx="30" ry="15" fill="white"/>
  <ellipse cx="500" cy="80" rx="50" ry="25" fill="white"/>
  <ellipse cx="540" cy="70" rx="35" ry="20" fill="white"/>
  
  <!-- Main building under construction -->
  <rect x="300" y="200" width="150" height="200" fill="#d1d9e6"/>
  <rect x="320" y="220" width="30" height="40" fill="#5a6978"/>
  <rect x="370" y="220" width="30" height="40" fill="#5a6978"/>
  <rect x="320" y="280" width="30" height="40" fill="#5a6978"/>
  <rect x="370" y="280" width="30" height="40" fill="#5a6978"/>
  
  <!-- Crane -->
  <g>
    <rect x="200" y="100" width="10" height="300" fill="#aaaaaa"/>
    <rect x="190" y="100" width="30" height="10" fill="#b3b3b3"/>
    <rect x="80" y="100" width="150" height="5" fill="#ffc107"/>
    <circle cx="80" cy="102" r="10" fill="#ffc107"/>
    <rect x="75" y="102" width="10" height="15" fill="#aaaaaa"/>
    
    <!-- Crane Arm -->
    <rect x="200" y="140" width="40" height="5" fill="#ffc107" transform="rotate(-30, 200, 140)"/>
    <rect x="200" y="170" width="4" height="30" fill="#aaaaaa" transform="rotate(-30, 200, 170)"/>
    
    <!-- Crane cab -->
    <rect x="185" y="80" width="40" height="20" fill="#ffc107"/>
    <rect x="195" y="60" width="20" height="20" fill="#ffc107"/>
    <circle cx="205" cy="70" r="5" fill="#ffffff"/>
    
    <!-- Load being lifted -->
    <rect x="100" y="130" width="40" height="20" fill="#8aa2c8"/>
    <line x1="80" y1="102" x2="120" y2="130" stroke="#888888" stroke-width="2"/>
  </g>
  
  <!-- Construction barrier -->
  <rect x="80" y="400" width="120" height="20" fill="#f8f9fa" stroke="#ffc107" stroke-width="2"/>
  <rect x="80" y="400" width="20" height="20" fill="#ffc107"/>
  <rect x="120" y="400" width="20" height="20" fill="#ffc107"/>
  <rect x="160" y="400" width="20" height="20" fill="#ffc107"/>
  
  <!-- Construction equipment -->
  <g>
    <!-- Bulldozer -->
    <rect x="240" y="380" width="60" height="30" fill="#ffc107"/>
    <rect x="230" y="395" width="80" height="15" fill="#ffc107"/>
    <rect x="270" y="370" width="20" height="15" fill="#343a40"/>
    <circle cx="245" cy="410" r="10" fill="#343a40"/>
    <circle cx="295" cy="410" r="10" fill="#343a40"/>
    <rect x="230" y="380" width="15" height="8" fill="#343a40"/>
  </g>
  
  <!-- Cement mixer -->
  <g>
    <rect x="350" y="390" width="40" height="20" fill="#ffc107"/>
    <circle cx="390" cy="400" r="15" fill="#6c757d" transform="rotate(30, 390, 400)"/>
    <circle cx="355" cy="410" r="10" fill="#343a40"/>
    <circle cx="385" cy="410" r="10" fill="#343a40"/>
  </g>
  
  <!-- Excavator -->
  <g>
    <rect x="450" y="390" width="50" height="20" fill="#ffc107"/>
    <rect x="480" y="370" width="15" height="20" fill="#343a40"/>
    <rect x="470" y="350" width="10" height="40" fill="#ffc107" transform="rotate(-30, 470, 350)"/>
    <rect x="440" y="335" width="30" height="8" fill="#ffc107" transform="rotate(-30, 440, 335)"/>
    <rect x="425" y="350" width="20" height="5" fill="#343a40" transform="rotate(-30, 425, 350)"/>
    <circle cx="455" cy="410" r="10" fill="#343a40"/>
    <circle cx="495" cy="410" r="10" fill="#343a40"/>
  </g>
  
  <!-- Ground line -->
  <rect x="0" y="420" width="800" height="180" fill="#f8f9fa"/>
</svg> 