<svg xmlns="http://www.w3.org/2000/svg" viewBox="0 0 1000 600">
  <!-- Background - white -->
  <rect width="1000" height="600" fill="#ffffff"/>
  
  <!-- Buildings and Construction Elements -->
  <!-- Tall Building on Left -->
  <g>
    <rect x="80" y="200" width="80" height="350" fill="#a8d8e8" stroke="#846f4e" stroke-width="1.5"/>
    <!-- Windows -->
    <g fill="#ffffff" stroke="#846f4e" stroke-width="0.5">
      <rect x="95" y="220" width="15" height="20"/>
      <rect x="120" y="220" width="15" height="20"/>
      <rect x="95" y="250" width="15" height="20"/>
      <rect x="120" y="250" width="15" height="20"/>
      <rect x="95" y="280" width="15" height="20"/>
      <rect x="120" y="280" width="15" height="20"/>
      <rect x="95" y="310" width="15" height="20"/>
      <rect x="120" y="310" width="15" height="20"/>
      <rect x="95" y="340" width="15" height="20"/>
      <rect x="120" y="340" width="15" height="20"/>
      <rect x="95" y="370" width="15" height="20"/>
      <rect x="120" y="370" width="15" height="20"/>
      <rect x="95" y="400" width="15" height="20"/>
      <rect x="120" y="400" width="15" height="20"/>
      <rect x="95" y="430" width="15" height="20"/>
      <rect x="120" y="430" width="15" height="20"/>
      <rect x="95" y="460" width="15" height="20"/>
      <rect x="120" y="460" width="15" height="20"/>
      <rect x="95" y="490" width="15" height="20"/>
      <rect x="120" y="490" width="15" height="20"/>
    </g>
  </g>
  
  <!-- Building Construction in Middle -->
  <g>
    <rect x="230" y="320" width="120" height="230" fill="#a8d8e8" stroke="#846f4e" stroke-width="1.5"/>
    <!-- Floors -->
    <line x1="230" y1="370" x2="350" y2="370" stroke="#846f4e" stroke-width="1"/>
    <line x1="230" y1="420" x2="350" y2="420" stroke="#846f4e" stroke-width="1"/>
    <line x1="230" y1="470" x2="350" y2="470" stroke="#846f4e" stroke-width="1"/>
    <!-- Windows/Lights -->
    <rect x="250" y="390" width="10" height="15" fill="#ffd54f"/>
    <rect x="280" y="390" width="10" height="15" fill="#ffd54f"/>
    <rect x="310" y="390" width="10" height="15" fill="#ffd54f"/>
    <rect x="250" y="440" width="10" height="15" fill="#ffd54f"/>
    <rect x="280" y="440" width="10" height="15" fill="#ffd54f"/>
    <rect x="310" y="440" width="10" height="15" fill="#ffd54f"/>
  </g>
  
  <!-- Curved Building -->
  <path d="M600,200 Q650,200 650,250 L650,550 L550,550 L550,250 Q550,200 600,200" fill="#a8d8e8" stroke="#846f4e" stroke-width="1.5"/>
  <path d="M600,230 Q630,230 630,260 L630,550 L570,550 L570,260 Q570,230 600,230" fill="none" stroke="#846f4e" stroke-width="1"/>
  <path d="M600,260 Q610,260 610,280 L610,550 L590,550 L590,280 Q590,260 600,260" fill="none" stroke="#846f4e" stroke-width="1"/>
  
  <!-- Office Building on Right -->
  <g>
    <rect x="800" y="250" width="120" height="300" fill="#a8d8e8" stroke="#846f4e" stroke-width="1.5"/>
    <!-- Windows -->
    <g fill="#ffd54f" stroke="#846f4e" stroke-width="0.5">
      <rect x="820" y="280" width="25" height="40"/>
      <rect x="870" y="280" width="25" height="40"/>
      <rect x="820" y="340" width="25" height="40"/>
      <rect x="870" y="340" width="25" height="40"/>
      <rect x="820" y="400" width="25" height="40"/>
      <rect x="870" y="400" width="25" height="40"/>
      <rect x="820" y="460" width="25" height="40"/>
      <rect x="870" y="460" width="25" height="40"/>
    </g>
  </g>
  
  <!-- Small Building -->
  <g>
    <rect x="700" y="350" width="70" height="200" fill="#f5e0c9" stroke="#846f4e" stroke-width="1.5"/>
    <!-- Windows -->
    <g fill="#ffffff" stroke="#846f4e" stroke-width="0.5">
      <rect x="710" y="370" width="10" height="15"/>
      <rect x="730" y="370" width="10" height="15"/>
      <rect x="750" y="370" width="10" height="15"/>
      <rect x="710" y="395" width="10" height="15"/>
      <rect x="730" y="395" width="10" height="15"/>
      <rect x="750" y="395" width="10" height="15"/>
      <rect x="710" y="420" width="10" height="15"/>
      <rect x="730" y="420" width="10" height="15"/>
      <rect x="750" y="420" width="10" height="15"/>
      <rect x="710" y="445" width="10" height="15"/>
      <rect x="730" y="445" width="10" height="15"/>
      <rect x="750" y="445" width="10" height="15"/>
      <rect x="710" y="470" width="10" height="15"/>
      <rect x="730" y="470" width="10" height="15"/>
      <rect x="750" y="470" width="10" height="15"/>
      <rect x="710" y="495" width="10" height="15"/>
      <rect x="730" y="495" width="10" height="15"/>
      <rect x="750" y="495" width="10" height="15"/>
    </g>
  </g>
  
  <!-- Construction Cranes -->
  <!-- Left Crane -->
  <g stroke="#ffd54f" stroke-width="3" fill="none">
    <line x1="20" y1="170" x2="20" y2="550"/>
    <line x1="20" y1="170" x2="300" y2="170"/>
    <line x1="20" y1="200" x2="50" y2="200"/>
    <line x1="20" y1="230" x2="50" y2="230"/>
    <line x1="20" y1="260" x2="50" y2="260"/>
    <line x1="50" y1="200" x2="50" y2="260"/>
    <line x1="20" y1="170" x2="50" y2="200"/>
  </g>
  
  <!-- Right Crane -->
  <g stroke="#ffd54f" stroke-width="3" fill="none">
    <line x1="500" y1="150" x2="500" y2="350"/>
    <line x1="500" y1="150" x2="700" y2="150"/>
    <line x1="500" y1="180" x2="530" y2="180"/>
    <line x1="500" y1="210" x2="530" y2="210"/>
    <line x1="500" y1="240" x2="530" y2="240"/>
    <line x1="530" y1="180" x2="530" y2="240"/>
    <line x1="500" y1="150" x2="530" y2="180"/>
  </g>
  
  <!-- Watercolor Effect Overlays -->
  <g opacity="0.3">
    <ellipse cx="150" cy="400" rx="100" ry="80" fill="#a8d8e8"/>
    <ellipse cx="350" cy="500" rx="120" ry="70" fill="#a8d8e8"/>
    <ellipse cx="600" cy="450" rx="140" ry="100" fill="#a8d8e8"/>
    <ellipse cx="800" cy="350" rx="90" ry="70" fill="#a8d8e8"/>
    <ellipse cx="250" cy="300" rx="70" ry="40" fill="#f5e0c9"/>
    <ellipse cx="500" cy="250" rx="80" ry="50" fill="#f5e0c9"/>
    <ellipse cx="650" cy="500" rx="60" ry="40" fill="#f5e0c9"/>
    <ellipse cx="900" cy="450" rx="75" ry="45" fill="#f5e0c9"/>
  </g>
</svg> 